<mxfile host="app.diagrams.net" modified="2024-06-04T09:12:09.644Z" agent="Mozilla/5.0 (Windows NT 10.0; Win64; x64) AppleWebKit/537.36 (KHTML, like Gecko) Chrome/124.0.0.0 Safari/537.36" etag="GtTXkZcOsJvljh5HvQHW" version="24.4.6" type="device">
  <diagram id="R2lEEEUBdFMjLlhIrx00" name="Page-1">
    <mxGraphModel dx="2249" dy="1911" grid="1" gridSize="10" guides="1" tooltips="1" connect="1" arrows="1" fold="1" page="1" pageScale="1" pageWidth="850" pageHeight="1100" math="0" shadow="0" extFonts="Permanent Marker^https://fonts.googleapis.com/css?family=Permanent+Marker">
      <root>
        <mxCell id="0" />
        <mxCell id="1" parent="0" />
        <mxCell id="Km-T-MCeGYv-uBNx-6VA-112" style="edgeStyle=orthogonalEdgeStyle;rounded=0;orthogonalLoop=1;jettySize=auto;html=1;exitX=0.5;exitY=0;exitDx=0;exitDy=0;entryX=0.5;entryY=1;entryDx=0;entryDy=0;endArrow=none;endFill=0;" parent="1" source="a5exqe3Fn3N1X1YNWytJ-4" target="Km-T-MCeGYv-uBNx-6VA-111" edge="1">
          <mxGeometry relative="1" as="geometry" />
        </mxCell>
        <mxCell id="Km-T-MCeGYv-uBNx-6VA-150" style="edgeStyle=orthogonalEdgeStyle;rounded=0;orthogonalLoop=1;jettySize=auto;html=1;exitX=1;exitY=0.5;exitDx=0;exitDy=0;entryX=0.5;entryY=1;entryDx=0;entryDy=0;endArrow=none;endFill=0;" parent="1" source="Km-T-MCeGYv-uBNx-6VA-151" target="Km-T-MCeGYv-uBNx-6VA-145" edge="1">
          <mxGeometry relative="1" as="geometry" />
        </mxCell>
        <mxCell id="a5exqe3Fn3N1X1YNWytJ-4" value="Character" style="rounded=0;whiteSpace=wrap;html=1;" parent="1" vertex="1">
          <mxGeometry x="399" y="370" width="120" height="60" as="geometry" />
        </mxCell>
        <mxCell id="Km-T-MCeGYv-uBNx-6VA-146" style="edgeStyle=orthogonalEdgeStyle;rounded=0;orthogonalLoop=1;jettySize=auto;html=1;exitX=1;exitY=0.5;exitDx=0;exitDy=0;entryX=0;entryY=0.5;entryDx=0;entryDy=0;endArrow=none;endFill=0;" parent="1" source="Km-T-MCeGYv-uBNx-6VA-147" target="Km-T-MCeGYv-uBNx-6VA-145" edge="1">
          <mxGeometry relative="1" as="geometry" />
        </mxCell>
        <mxCell id="a5exqe3Fn3N1X1YNWytJ-5" value="Item" style="rounded=0;whiteSpace=wrap;html=1;" parent="1" vertex="1">
          <mxGeometry x="400" width="120" height="60" as="geometry" />
        </mxCell>
        <mxCell id="a5exqe3Fn3N1X1YNWytJ-6" value="Weapons" style="rounded=0;whiteSpace=wrap;html=1;" parent="1" vertex="1">
          <mxGeometry x="150" y="-340" width="120" height="60" as="geometry" />
        </mxCell>
        <mxCell id="a5exqe3Fn3N1X1YNWytJ-7" value="Armor" style="rounded=0;whiteSpace=wrap;html=1;" parent="1" vertex="1">
          <mxGeometry x="655" y="-340" width="120" height="60" as="geometry" />
        </mxCell>
        <mxCell id="a5exqe3Fn3N1X1YNWytJ-8" value="Talismans" style="rounded=0;whiteSpace=wrap;html=1;" parent="1" vertex="1">
          <mxGeometry x="1135" y="-340" width="120" height="60" as="geometry" />
        </mxCell>
        <mxCell id="a5exqe3Fn3N1X1YNWytJ-9" value="Equipment&amp;nbsp;&lt;br&gt;&amp;amp; Magic" style="rounded=0;whiteSpace=wrap;html=1;strokeColor=default;perimeterSpacing=0;glass=0;shadow=0;gradientColor=none;fillColor=default;" parent="1" vertex="1">
          <mxGeometry x="-350" y="-340" width="120" height="60" as="geometry" />
        </mxCell>
        <mxCell id="Km-T-MCeGYv-uBNx-6VA-139" style="rounded=0;orthogonalLoop=1;jettySize=auto;html=1;exitX=0.5;exitY=0;exitDx=0;exitDy=0;entryX=0.5;entryY=1;entryDx=0;entryDy=0;endArrow=none;endFill=0;edgeStyle=orthogonalEdgeStyle;" parent="1" source="Km-T-MCeGYv-uBNx-6VA-140" target="Km-T-MCeGYv-uBNx-6VA-134" edge="1">
          <mxGeometry relative="1" as="geometry" />
        </mxCell>
        <mxCell id="Km-T-MCeGYv-uBNx-6VA-160" style="edgeStyle=orthogonalEdgeStyle;rounded=0;orthogonalLoop=1;jettySize=auto;html=1;exitX=0.5;exitY=0;exitDx=0;exitDy=0;entryX=1;entryY=0.5;entryDx=0;entryDy=0;endArrow=none;endFill=0;" parent="1" source="Km-T-MCeGYv-uBNx-6VA-167" target="Km-T-MCeGYv-uBNx-6VA-145" edge="1">
          <mxGeometry relative="1" as="geometry">
            <Array as="points">
              <mxPoint x="1270" y="30" />
            </Array>
          </mxGeometry>
        </mxCell>
        <mxCell id="a5exqe3Fn3N1X1YNWytJ-10" value="Locations" style="rounded=0;whiteSpace=wrap;html=1;" parent="1" vertex="1">
          <mxGeometry x="-190" y="370" width="120" height="60" as="geometry" />
        </mxCell>
        <mxCell id="Km-T-MCeGYv-uBNx-6VA-100" style="edgeStyle=orthogonalEdgeStyle;rounded=0;orthogonalLoop=1;jettySize=auto;html=1;exitX=0.5;exitY=0;exitDx=0;exitDy=0;entryX=0;entryY=0.5;entryDx=0;entryDy=0;endArrow=none;endFill=0;" parent="1" source="a5exqe3Fn3N1X1YNWytJ-12" target="Km-T-MCeGYv-uBNx-6VA-94" edge="1">
          <mxGeometry relative="1" as="geometry" />
        </mxCell>
        <mxCell id="a5exqe3Fn3N1X1YNWytJ-12" value="Bosses" style="rounded=0;whiteSpace=wrap;html=1;" parent="1" vertex="1">
          <mxGeometry x="400" y="815" width="120" height="60" as="geometry" />
        </mxCell>
        <mxCell id="a5exqe3Fn3N1X1YNWytJ-35" value="IS-A" style="triangle;whiteSpace=wrap;html=1;rotation=0;direction=south;" parent="1" vertex="1">
          <mxGeometry x="425" y="-120" width="70" height="50" as="geometry" />
        </mxCell>
        <mxCell id="a5exqe3Fn3N1X1YNWytJ-36" value="" style="endArrow=none;html=1;rounded=0;entryX=1;entryY=0.5;entryDx=0;entryDy=0;exitX=0.5;exitY=0;exitDx=0;exitDy=0;" parent="1" source="a5exqe3Fn3N1X1YNWytJ-5" target="a5exqe3Fn3N1X1YNWytJ-35" edge="1">
          <mxGeometry width="50" height="50" relative="1" as="geometry">
            <mxPoint x="300" y="30" as="sourcePoint" />
            <mxPoint x="350" y="-20" as="targetPoint" />
          </mxGeometry>
        </mxCell>
        <mxCell id="a5exqe3Fn3N1X1YNWytJ-37" value="" style="endArrow=none;html=1;rounded=0;entryX=0.5;entryY=1;entryDx=0;entryDy=0;exitX=0;exitY=0.5;exitDx=0;exitDy=0;edgeStyle=orthogonalEdgeStyle;shape=link;" parent="1" source="a5exqe3Fn3N1X1YNWytJ-35" target="Er95AWRNGRpnLCsBrpN--17" edge="1">
          <mxGeometry width="50" height="50" relative="1" as="geometry">
            <mxPoint x="210" y="-100" as="sourcePoint" />
            <mxPoint x="260" y="-150" as="targetPoint" />
          </mxGeometry>
        </mxCell>
        <mxCell id="a5exqe3Fn3N1X1YNWytJ-38" value="" style="endArrow=none;html=1;rounded=0;entryX=0.5;entryY=1;entryDx=0;entryDy=0;exitX=0;exitY=0.5;exitDx=0;exitDy=0;edgeStyle=orthogonalEdgeStyle;shape=link;" parent="1" source="a5exqe3Fn3N1X1YNWytJ-35" target="Er95AWRNGRpnLCsBrpN--18" edge="1">
          <mxGeometry width="50" height="50" relative="1" as="geometry">
            <mxPoint x="470" y="-110" as="sourcePoint" />
            <mxPoint x="170" y="-210" as="targetPoint" />
          </mxGeometry>
        </mxCell>
        <mxCell id="a5exqe3Fn3N1X1YNWytJ-39" value="" style="endArrow=none;html=1;rounded=0;entryX=0.5;entryY=1;entryDx=0;entryDy=0;exitX=0;exitY=0.5;exitDx=0;exitDy=0;edgeStyle=orthogonalEdgeStyle;shape=link;" parent="1" source="a5exqe3Fn3N1X1YNWytJ-35" target="Er95AWRNGRpnLCsBrpN--19" edge="1">
          <mxGeometry width="50" height="50" relative="1" as="geometry">
            <mxPoint x="480" y="-100" as="sourcePoint" />
            <mxPoint x="180" y="-200" as="targetPoint" />
          </mxGeometry>
        </mxCell>
        <mxCell id="a5exqe3Fn3N1X1YNWytJ-40" value="" style="endArrow=none;html=1;rounded=0;entryX=0.5;entryY=1;entryDx=0;entryDy=0;exitX=0;exitY=0.5;exitDx=0;exitDy=0;edgeStyle=orthogonalEdgeStyle;shape=link;" parent="1" source="a5exqe3Fn3N1X1YNWytJ-35" target="Er95AWRNGRpnLCsBrpN--21" edge="1">
          <mxGeometry width="50" height="50" relative="1" as="geometry">
            <mxPoint x="490" y="-90" as="sourcePoint" />
            <mxPoint x="190" y="-190" as="targetPoint" />
          </mxGeometry>
        </mxCell>
        <mxCell id="a5exqe3Fn3N1X1YNWytJ-52" style="edgeStyle=orthogonalEdgeStyle;rounded=0;orthogonalLoop=1;jettySize=auto;html=1;exitX=1;exitY=0.5;exitDx=0;exitDy=0;entryX=0;entryY=0.5;entryDx=0;entryDy=0;endArrow=none;endFill=0;" parent="1" source="a5exqe3Fn3N1X1YNWytJ-51" target="a5exqe3Fn3N1X1YNWytJ-4" edge="1">
          <mxGeometry relative="1" as="geometry" />
        </mxCell>
        <mxCell id="a5exqe3Fn3N1X1YNWytJ-53" style="edgeStyle=orthogonalEdgeStyle;rounded=0;orthogonalLoop=1;jettySize=auto;html=1;exitX=0;exitY=0.5;exitDx=0;exitDy=0;entryX=1;entryY=0.5;entryDx=0;entryDy=0;endArrow=none;endFill=0;" parent="1" source="a5exqe3Fn3N1X1YNWytJ-51" target="a5exqe3Fn3N1X1YNWytJ-10" edge="1">
          <mxGeometry relative="1" as="geometry" />
        </mxCell>
        <mxCell id="a5exqe3Fn3N1X1YNWytJ-51" value="Is at" style="rhombus;whiteSpace=wrap;html=1;" parent="1" vertex="1">
          <mxGeometry x="130" y="375" width="50" height="50" as="geometry" />
        </mxCell>
        <mxCell id="Km-T-MCeGYv-uBNx-6VA-59" style="rounded=0;orthogonalLoop=1;jettySize=auto;html=1;exitX=0.5;exitY=1;exitDx=0;exitDy=0;entryX=0.5;entryY=0;entryDx=0;entryDy=0;endArrow=none;endFill=0;" parent="1" source="Km-T-MCeGYv-uBNx-6VA-4" target="Er95AWRNGRpnLCsBrpN--17" edge="1">
          <mxGeometry relative="1" as="geometry" />
        </mxCell>
        <mxCell id="Km-T-MCeGYv-uBNx-6VA-4" value="damageType" style="ellipse;whiteSpace=wrap;html=1;" parent="1" vertex="1">
          <mxGeometry x="-340" y="-460" width="100" height="60" as="geometry" />
        </mxCell>
        <mxCell id="Km-T-MCeGYv-uBNx-6VA-60" style="edgeStyle=orthogonalEdgeStyle;rounded=0;orthogonalLoop=1;jettySize=auto;html=1;exitX=0;exitY=0.5;exitDx=0;exitDy=0;entryX=1;entryY=0.5;entryDx=0;entryDy=0;endArrow=none;endFill=0;" parent="1" source="Km-T-MCeGYv-uBNx-6VA-5" target="a5exqe3Fn3N1X1YNWytJ-9" edge="1">
          <mxGeometry relative="1" as="geometry" />
        </mxCell>
        <mxCell id="Km-T-MCeGYv-uBNx-6VA-5" value="manaCost" style="ellipse;whiteSpace=wrap;html=1;" parent="1" vertex="1">
          <mxGeometry x="-190" y="-340" width="100" height="60" as="geometry" />
        </mxCell>
        <mxCell id="Km-T-MCeGYv-uBNx-6VA-63" style="rounded=0;orthogonalLoop=1;jettySize=auto;html=1;exitX=0.5;exitY=1;exitDx=0;exitDy=0;endArrow=none;endFill=0;entryX=0.5;entryY=0;entryDx=0;entryDy=0;" parent="1" source="Km-T-MCeGYv-uBNx-6VA-9" target="Er95AWRNGRpnLCsBrpN--18" edge="1">
          <mxGeometry relative="1" as="geometry">
            <mxPoint x="210" y="-340" as="targetPoint" />
          </mxGeometry>
        </mxCell>
        <mxCell id="Km-T-MCeGYv-uBNx-6VA-9" value="damage" style="ellipse;whiteSpace=wrap;html=1;" parent="1" vertex="1">
          <mxGeometry x="160" y="-460" width="100" height="60" as="geometry" />
        </mxCell>
        <mxCell id="Km-T-MCeGYv-uBNx-6VA-61" style="rounded=0;orthogonalLoop=1;jettySize=auto;html=1;exitX=0.5;exitY=1;exitDx=0;exitDy=0;endArrow=none;endFill=0;entryX=0.5;entryY=0;entryDx=0;entryDy=0;" parent="1" source="Km-T-MCeGYv-uBNx-6VA-10" target="Er95AWRNGRpnLCsBrpN--18" edge="1">
          <mxGeometry relative="1" as="geometry" />
        </mxCell>
        <mxCell id="Km-T-MCeGYv-uBNx-6VA-10" value="range" style="ellipse;whiteSpace=wrap;html=1;" parent="1" vertex="1">
          <mxGeometry y="-460" width="100" height="60" as="geometry" />
        </mxCell>
        <mxCell id="Km-T-MCeGYv-uBNx-6VA-65" style="rounded=0;orthogonalLoop=1;jettySize=auto;html=1;exitX=0;exitY=0.5;exitDx=0;exitDy=0;entryX=1;entryY=0.5;entryDx=0;entryDy=0;endArrow=none;endFill=0;" parent="1" source="Km-T-MCeGYv-uBNx-6VA-11" target="Er95AWRNGRpnLCsBrpN--18" edge="1">
          <mxGeometry relative="1" as="geometry" />
        </mxCell>
        <mxCell id="Km-T-MCeGYv-uBNx-6VA-11" value="scalingAttributes" style="ellipse;whiteSpace=wrap;html=1;" parent="1" vertex="1">
          <mxGeometry x="320" y="-340" width="100" height="60" as="geometry" />
        </mxCell>
        <mxCell id="Km-T-MCeGYv-uBNx-6VA-64" style="rounded=0;orthogonalLoop=1;jettySize=auto;html=1;exitX=0.5;exitY=1;exitDx=0;exitDy=0;endArrow=none;endFill=0;entryX=0.5;entryY=0;entryDx=0;entryDy=0;" parent="1" source="Km-T-MCeGYv-uBNx-6VA-12" target="Er95AWRNGRpnLCsBrpN--18" edge="1">
          <mxGeometry relative="1" as="geometry">
            <mxPoint x="210" y="-340" as="targetPoint" />
          </mxGeometry>
        </mxCell>
        <mxCell id="Km-T-MCeGYv-uBNx-6VA-12" value="abilities" style="ellipse;whiteSpace=wrap;html=1;" parent="1" vertex="1">
          <mxGeometry x="320" y="-460" width="100" height="60" as="geometry" />
        </mxCell>
        <mxCell id="Km-T-MCeGYv-uBNx-6VA-71" style="rounded=0;orthogonalLoop=1;jettySize=auto;html=1;exitX=0.5;exitY=1;exitDx=0;exitDy=0;entryX=0.5;entryY=0;entryDx=0;entryDy=0;endArrow=none;endFill=0;" parent="1" source="Km-T-MCeGYv-uBNx-6VA-15" target="Er95AWRNGRpnLCsBrpN--19" edge="1">
          <mxGeometry relative="1" as="geometry" />
        </mxCell>
        <mxCell id="Km-T-MCeGYv-uBNx-6VA-15" value="physicalDef" style="ellipse;whiteSpace=wrap;html=1;" parent="1" vertex="1">
          <mxGeometry x="820" y="-460" width="100" height="60" as="geometry" />
        </mxCell>
        <mxCell id="Km-T-MCeGYv-uBNx-6VA-70" style="rounded=0;orthogonalLoop=1;jettySize=auto;html=1;exitX=0.5;exitY=1;exitDx=0;exitDy=0;entryX=0.5;entryY=0;entryDx=0;entryDy=0;endArrow=none;endFill=0;" parent="1" source="Km-T-MCeGYv-uBNx-6VA-16" target="Er95AWRNGRpnLCsBrpN--19" edge="1">
          <mxGeometry relative="1" as="geometry" />
        </mxCell>
        <mxCell id="Km-T-MCeGYv-uBNx-6VA-16" value="magicDef" style="ellipse;whiteSpace=wrap;html=1;" parent="1" vertex="1">
          <mxGeometry x="665" y="-460" width="100" height="60" as="geometry" />
        </mxCell>
        <mxCell id="Km-T-MCeGYv-uBNx-6VA-72" style="rounded=0;orthogonalLoop=1;jettySize=auto;html=1;exitX=0;exitY=0.5;exitDx=0;exitDy=0;entryX=1;entryY=0.5;entryDx=0;entryDy=0;endArrow=none;endFill=0;" parent="1" source="Km-T-MCeGYv-uBNx-6VA-17" target="Er95AWRNGRpnLCsBrpN--19" edge="1">
          <mxGeometry relative="1" as="geometry" />
        </mxCell>
        <mxCell id="Km-T-MCeGYv-uBNx-6VA-17" value="elementsRes" style="ellipse;whiteSpace=wrap;html=1;" parent="1" vertex="1">
          <mxGeometry x="820" y="-340" width="100" height="60" as="geometry" />
        </mxCell>
        <mxCell id="Km-T-MCeGYv-uBNx-6VA-68" style="rounded=0;orthogonalLoop=1;jettySize=auto;html=1;exitX=0.5;exitY=1;exitDx=0;exitDy=0;entryX=0.5;entryY=0;entryDx=0;entryDy=0;endArrow=none;endFill=0;" parent="1" source="Km-T-MCeGYv-uBNx-6VA-18" target="Er95AWRNGRpnLCsBrpN--19" edge="1">
          <mxGeometry relative="1" as="geometry" />
        </mxCell>
        <mxCell id="Km-T-MCeGYv-uBNx-6VA-18" value="weight" style="ellipse;whiteSpace=wrap;html=1;" parent="1" vertex="1">
          <mxGeometry x="510" y="-460" width="100" height="60" as="geometry" />
        </mxCell>
        <mxCell id="Km-T-MCeGYv-uBNx-6VA-78" style="rounded=0;orthogonalLoop=1;jettySize=auto;html=1;exitX=0;exitY=1;exitDx=0;exitDy=0;entryX=0.5;entryY=0;entryDx=0;entryDy=0;endArrow=none;endFill=0;" parent="1" source="Km-T-MCeGYv-uBNx-6VA-22" target="Er95AWRNGRpnLCsBrpN--21" edge="1">
          <mxGeometry relative="1" as="geometry" />
        </mxCell>
        <mxCell id="Km-T-MCeGYv-uBNx-6VA-22" value="effect" style="ellipse;whiteSpace=wrap;html=1;" parent="1" vertex="1">
          <mxGeometry x="1245" y="-450" width="100" height="60" as="geometry" />
        </mxCell>
        <mxCell id="Km-T-MCeGYv-uBNx-6VA-104" style="rounded=0;orthogonalLoop=1;jettySize=auto;html=1;exitX=0;exitY=1;exitDx=0;exitDy=0;entryX=1;entryY=0.5;entryDx=0;entryDy=0;endArrow=none;endFill=0;" parent="1" source="Km-T-MCeGYv-uBNx-6VA-24" target="a5exqe3Fn3N1X1YNWytJ-5" edge="1">
          <mxGeometry relative="1" as="geometry" />
        </mxCell>
        <mxCell id="Km-T-MCeGYv-uBNx-6VA-24" value="&lt;u&gt;id&lt;/u&gt;" style="ellipse;whiteSpace=wrap;html=1;" parent="1" vertex="1">
          <mxGeometry x="555" y="-70" width="100" height="60" as="geometry" />
        </mxCell>
        <mxCell id="Km-T-MCeGYv-uBNx-6VA-105" style="rounded=0;orthogonalLoop=1;jettySize=auto;html=1;exitX=0;exitY=0;exitDx=0;exitDy=0;entryX=1;entryY=0.5;entryDx=0;entryDy=0;endArrow=none;endFill=0;" parent="1" source="Km-T-MCeGYv-uBNx-6VA-25" target="a5exqe3Fn3N1X1YNWytJ-5" edge="1">
          <mxGeometry relative="1" as="geometry" />
        </mxCell>
        <mxCell id="Km-T-MCeGYv-uBNx-6VA-25" value="name" style="ellipse;whiteSpace=wrap;html=1;" parent="1" vertex="1">
          <mxGeometry x="550" y="80" width="100" height="60" as="geometry" />
        </mxCell>
        <mxCell id="Km-T-MCeGYv-uBNx-6VA-101" style="rounded=0;orthogonalLoop=1;jettySize=auto;html=1;exitX=1;exitY=1;exitDx=0;exitDy=0;entryX=0;entryY=0.5;entryDx=0;entryDy=0;endArrow=none;endFill=0;" parent="1" source="Km-T-MCeGYv-uBNx-6VA-26" target="a5exqe3Fn3N1X1YNWytJ-5" edge="1">
          <mxGeometry relative="1" as="geometry" />
        </mxCell>
        <mxCell id="Km-T-MCeGYv-uBNx-6VA-26" value="description" style="ellipse;whiteSpace=wrap;html=1;" parent="1" vertex="1">
          <mxGeometry x="260" y="-70" width="100" height="60" as="geometry" />
        </mxCell>
        <mxCell id="Km-T-MCeGYv-uBNx-6VA-103" style="rounded=0;orthogonalLoop=1;jettySize=auto;html=1;exitX=1;exitY=0.5;exitDx=0;exitDy=0;entryX=0;entryY=0.5;entryDx=0;entryDy=0;endArrow=none;endFill=0;" parent="1" source="Km-T-MCeGYv-uBNx-6VA-28" target="a5exqe3Fn3N1X1YNWytJ-5" edge="1">
          <mxGeometry relative="1" as="geometry" />
        </mxCell>
        <mxCell id="Km-T-MCeGYv-uBNx-6VA-28" value="useRequisites" style="ellipse;whiteSpace=wrap;html=1;" parent="1" vertex="1">
          <mxGeometry x="260" y="80" width="100" height="60" as="geometry" />
        </mxCell>
        <mxCell id="Km-T-MCeGYv-uBNx-6VA-79" style="rounded=0;orthogonalLoop=1;jettySize=auto;html=1;exitX=1;exitY=0.5;exitDx=0;exitDy=0;entryX=0;entryY=0.5;entryDx=0;entryDy=0;endArrow=none;endFill=0;" parent="1" source="Km-T-MCeGYv-uBNx-6VA-29" target="Er95AWRNGRpnLCsBrpN--17" edge="1">
          <mxGeometry relative="1" as="geometry" />
        </mxCell>
        <mxCell id="Km-T-MCeGYv-uBNx-6VA-29" value="effect" style="ellipse;whiteSpace=wrap;html=1;" parent="1" vertex="1">
          <mxGeometry x="-500" y="-340" width="100" height="60" as="geometry" />
        </mxCell>
        <mxCell id="Km-T-MCeGYv-uBNx-6VA-131" style="rounded=0;orthogonalLoop=1;jettySize=auto;html=1;exitX=0.5;exitY=1;exitDx=0;exitDy=0;entryX=0;entryY=1;entryDx=0;entryDy=0;endArrow=none;endFill=0;" parent="1" source="Km-T-MCeGYv-uBNx-6VA-30" target="a5exqe3Fn3N1X1YNWytJ-4" edge="1">
          <mxGeometry relative="1" as="geometry" />
        </mxCell>
        <mxCell id="Km-T-MCeGYv-uBNx-6VA-30" value="&lt;u&gt;id&lt;/u&gt;" style="ellipse;whiteSpace=wrap;html=1;" parent="1" vertex="1">
          <mxGeometry x="260" y="475" width="100" height="60" as="geometry" />
        </mxCell>
        <mxCell id="Km-T-MCeGYv-uBNx-6VA-125" style="rounded=0;orthogonalLoop=1;jettySize=auto;html=1;exitX=0;exitY=1;exitDx=0;exitDy=0;entryX=1;entryY=0.5;entryDx=0;entryDy=0;endArrow=none;endFill=0;" parent="1" source="Km-T-MCeGYv-uBNx-6VA-31" target="a5exqe3Fn3N1X1YNWytJ-4" edge="1">
          <mxGeometry relative="1" as="geometry" />
        </mxCell>
        <mxCell id="Km-T-MCeGYv-uBNx-6VA-31" value="name" style="ellipse;whiteSpace=wrap;html=1;" parent="1" vertex="1">
          <mxGeometry x="630" y="320" width="100" height="60" as="geometry" />
        </mxCell>
        <mxCell id="Km-T-MCeGYv-uBNx-6VA-127" style="rounded=0;orthogonalLoop=1;jettySize=auto;html=1;exitX=0;exitY=0;exitDx=0;exitDy=0;entryX=1;entryY=0.5;entryDx=0;entryDy=0;endArrow=none;endFill=0;" parent="1" source="Km-T-MCeGYv-uBNx-6VA-32" target="a5exqe3Fn3N1X1YNWytJ-4" edge="1">
          <mxGeometry relative="1" as="geometry" />
        </mxCell>
        <mxCell id="Km-T-MCeGYv-uBNx-6VA-32" value="class" style="ellipse;whiteSpace=wrap;html=1;" parent="1" vertex="1">
          <mxGeometry x="630" y="430" width="100" height="60" as="geometry" />
        </mxCell>
        <mxCell id="Km-T-MCeGYv-uBNx-6VA-149" style="rounded=0;orthogonalLoop=1;jettySize=auto;html=1;exitX=0;exitY=0.5;exitDx=0;exitDy=0;entryX=1;entryY=0.5;entryDx=0;entryDy=0;endArrow=none;endFill=0;" parent="1" source="Km-T-MCeGYv-uBNx-6VA-33" target="a5exqe3Fn3N1X1YNWytJ-4" edge="1">
          <mxGeometry relative="1" as="geometry">
            <Array as="points">
              <mxPoint x="650" y="500" />
            </Array>
          </mxGeometry>
        </mxCell>
        <mxCell id="Km-T-MCeGYv-uBNx-6VA-33" value="level" style="ellipse;whiteSpace=wrap;html=1;" parent="1" vertex="1">
          <mxGeometry x="740" y="475" width="100" height="60" as="geometry" />
        </mxCell>
        <mxCell id="Km-T-MCeGYv-uBNx-6VA-130" style="rounded=0;orthogonalLoop=1;jettySize=auto;html=1;exitX=0.5;exitY=1;exitDx=0;exitDy=0;entryX=1;entryY=0;entryDx=0;entryDy=0;endArrow=none;endFill=0;" parent="1" source="Km-T-MCeGYv-uBNx-6VA-34" target="a5exqe3Fn3N1X1YNWytJ-4" edge="1">
          <mxGeometry relative="1" as="geometry" />
        </mxCell>
        <mxCell id="Km-T-MCeGYv-uBNx-6VA-34" value="attributes" style="ellipse;whiteSpace=wrap;html=1;" parent="1" vertex="1">
          <mxGeometry x="630" y="195" width="100" height="60" as="geometry" />
        </mxCell>
        <mxCell id="Km-T-MCeGYv-uBNx-6VA-106" style="rounded=0;orthogonalLoop=1;jettySize=auto;html=1;exitX=1;exitY=1;exitDx=0;exitDy=0;entryX=0;entryY=0.5;entryDx=0;entryDy=0;endArrow=none;endFill=0;" parent="1" source="Km-T-MCeGYv-uBNx-6VA-44" target="a5exqe3Fn3N1X1YNWytJ-10" edge="1">
          <mxGeometry relative="1" as="geometry" />
        </mxCell>
        <mxCell id="Km-T-MCeGYv-uBNx-6VA-44" value="&lt;u&gt;id&lt;/u&gt;" style="ellipse;whiteSpace=wrap;html=1;" parent="1" vertex="1">
          <mxGeometry x="-360" y="315" width="100" height="60" as="geometry" />
        </mxCell>
        <mxCell id="Km-T-MCeGYv-uBNx-6VA-108" style="rounded=0;orthogonalLoop=1;jettySize=auto;html=1;exitX=0.5;exitY=0;exitDx=0;exitDy=0;entryX=0.5;entryY=1;entryDx=0;entryDy=0;endArrow=none;endFill=0;" parent="1" source="Km-T-MCeGYv-uBNx-6VA-45" target="a5exqe3Fn3N1X1YNWytJ-10" edge="1">
          <mxGeometry relative="1" as="geometry" />
        </mxCell>
        <mxCell id="Km-T-MCeGYv-uBNx-6VA-45" value="name" style="ellipse;whiteSpace=wrap;html=1;" parent="1" vertex="1">
          <mxGeometry x="-280" y="480" width="100" height="60" as="geometry" />
        </mxCell>
        <mxCell id="Km-T-MCeGYv-uBNx-6VA-107" style="rounded=0;orthogonalLoop=1;jettySize=auto;html=1;exitX=1;exitY=0;exitDx=0;exitDy=0;entryX=0;entryY=0.5;entryDx=0;entryDy=0;endArrow=none;endFill=0;" parent="1" source="Km-T-MCeGYv-uBNx-6VA-46" target="a5exqe3Fn3N1X1YNWytJ-10" edge="1">
          <mxGeometry relative="1" as="geometry" />
        </mxCell>
        <mxCell id="Km-T-MCeGYv-uBNx-6VA-46" value="description" style="ellipse;whiteSpace=wrap;html=1;" parent="1" vertex="1">
          <mxGeometry x="-360" y="415" width="100" height="60" as="geometry" />
        </mxCell>
        <mxCell id="Km-T-MCeGYv-uBNx-6VA-110" style="rounded=0;orthogonalLoop=1;jettySize=auto;html=1;exitX=0.5;exitY=1;exitDx=0;exitDy=0;entryX=1;entryY=0;entryDx=0;entryDy=0;endArrow=none;endFill=0;" parent="1" source="Km-T-MCeGYv-uBNx-6VA-47" target="a5exqe3Fn3N1X1YNWytJ-10" edge="1">
          <mxGeometry relative="1" as="geometry" />
        </mxCell>
        <mxCell id="Km-T-MCeGYv-uBNx-6VA-47" value="area" style="ellipse;whiteSpace=wrap;html=1;" parent="1" vertex="1">
          <mxGeometry x="-80" y="280" width="100" height="60" as="geometry" />
        </mxCell>
        <mxCell id="Km-T-MCeGYv-uBNx-6VA-109" style="rounded=0;orthogonalLoop=1;jettySize=auto;html=1;exitX=0.5;exitY=0;exitDx=0;exitDy=0;entryX=0.5;entryY=1;entryDx=0;entryDy=0;endArrow=none;endFill=0;" parent="1" source="Km-T-MCeGYv-uBNx-6VA-48" target="a5exqe3Fn3N1X1YNWytJ-10" edge="1">
          <mxGeometry relative="1" as="geometry" />
        </mxCell>
        <mxCell id="Km-T-MCeGYv-uBNx-6VA-48" value="pointsOfInterest" style="ellipse;whiteSpace=wrap;html=1;" parent="1" vertex="1">
          <mxGeometry x="-90" y="480" width="100" height="60" as="geometry" />
        </mxCell>
        <mxCell id="Km-T-MCeGYv-uBNx-6VA-129" style="rounded=0;orthogonalLoop=1;jettySize=auto;html=1;exitX=0.5;exitY=0;exitDx=0;exitDy=0;entryX=1;entryY=1;entryDx=0;entryDy=0;endArrow=none;endFill=0;" parent="1" source="Km-T-MCeGYv-uBNx-6VA-52" target="a5exqe3Fn3N1X1YNWytJ-4" edge="1">
          <mxGeometry relative="1" as="geometry" />
        </mxCell>
        <mxCell id="Km-T-MCeGYv-uBNx-6VA-52" value="location" style="ellipse;whiteSpace=wrap;html=1;" parent="1" vertex="1">
          <mxGeometry x="630" y="530" width="100" height="60" as="geometry" />
        </mxCell>
        <mxCell id="Km-T-MCeGYv-uBNx-6VA-95" style="edgeStyle=orthogonalEdgeStyle;rounded=0;orthogonalLoop=1;jettySize=auto;html=1;exitX=1;exitY=0.5;exitDx=0;exitDy=0;entryX=0.5;entryY=1;entryDx=0;entryDy=0;endArrow=none;endFill=0;" parent="1" source="Km-T-MCeGYv-uBNx-6VA-94" target="a5exqe3Fn3N1X1YNWytJ-4" edge="1">
          <mxGeometry relative="1" as="geometry" />
        </mxCell>
        <mxCell id="Km-T-MCeGYv-uBNx-6VA-94" value="IS-A" style="triangle;whiteSpace=wrap;html=1;rotation=0;direction=north;" parent="1" vertex="1">
          <mxGeometry x="425" y="560" width="70" height="50" as="geometry" />
        </mxCell>
        <mxCell id="Km-T-MCeGYv-uBNx-6VA-126" style="rounded=0;orthogonalLoop=1;jettySize=auto;html=1;exitX=0;exitY=0.5;exitDx=0;exitDy=0;entryX=1;entryY=0.5;entryDx=0;entryDy=0;endArrow=none;endFill=0;" parent="1" source="Km-T-MCeGYv-uBNx-6VA-97" target="a5exqe3Fn3N1X1YNWytJ-4" edge="1">
          <mxGeometry relative="1" as="geometry">
            <Array as="points">
              <mxPoint x="630" y="320" />
            </Array>
          </mxGeometry>
        </mxCell>
        <mxCell id="Km-T-MCeGYv-uBNx-6VA-97" value="description" style="ellipse;whiteSpace=wrap;html=1;" parent="1" vertex="1">
          <mxGeometry x="740" y="255" width="100" height="60" as="geometry" />
        </mxCell>
        <mxCell id="Km-T-MCeGYv-uBNx-6VA-124" style="rounded=0;orthogonalLoop=1;jettySize=auto;html=1;exitX=0;exitY=1;exitDx=0;exitDy=0;entryX=1;entryY=0;entryDx=0;entryDy=0;endArrow=none;endFill=0;" parent="1" source="Km-T-MCeGYv-uBNx-6VA-98" target="a5exqe3Fn3N1X1YNWytJ-4" edge="1">
          <mxGeometry relative="1" as="geometry" />
        </mxCell>
        <mxCell id="Km-T-MCeGYv-uBNx-6VA-98" value="attacks" style="ellipse;whiteSpace=wrap;html=1;" parent="1" vertex="1">
          <mxGeometry x="530" y="260" width="100" height="60" as="geometry" />
        </mxCell>
        <mxCell id="Km-T-MCeGYv-uBNx-6VA-128" style="rounded=0;orthogonalLoop=1;jettySize=auto;html=1;exitX=0;exitY=0;exitDx=0;exitDy=0;entryX=1;entryY=1;entryDx=0;entryDy=0;endArrow=none;endFill=0;" parent="1" source="Km-T-MCeGYv-uBNx-6VA-99" target="a5exqe3Fn3N1X1YNWytJ-4" edge="1">
          <mxGeometry relative="1" as="geometry" />
        </mxCell>
        <mxCell id="Km-T-MCeGYv-uBNx-6VA-99" value="weakness" style="ellipse;whiteSpace=wrap;html=1;" parent="1" vertex="1">
          <mxGeometry x="530" y="490" width="100" height="60" as="geometry" />
        </mxCell>
        <mxCell id="Km-T-MCeGYv-uBNx-6VA-113" style="edgeStyle=orthogonalEdgeStyle;rounded=0;orthogonalLoop=1;jettySize=auto;html=1;exitX=0.5;exitY=0;exitDx=0;exitDy=0;entryX=0.5;entryY=1;entryDx=0;entryDy=0;endArrow=none;endFill=0;" parent="1" source="Km-T-MCeGYv-uBNx-6VA-111" target="a5exqe3Fn3N1X1YNWytJ-5" edge="1">
          <mxGeometry relative="1" as="geometry" />
        </mxCell>
        <mxCell id="Km-T-MCeGYv-uBNx-6VA-111" value="Drops/Use" style="rhombus;whiteSpace=wrap;html=1;aspect=fixed;" parent="1" vertex="1">
          <mxGeometry x="425" y="172" width="68" height="68" as="geometry" />
        </mxCell>
        <mxCell id="Km-T-MCeGYv-uBNx-6VA-114" value="1" style="text;html=1;align=center;verticalAlign=middle;resizable=0;points=[];autosize=1;strokeColor=none;fillColor=none;" parent="1" vertex="1">
          <mxGeometry x="460" y="335" width="30" height="30" as="geometry" />
        </mxCell>
        <mxCell id="Km-T-MCeGYv-uBNx-6VA-115" value="N" style="text;html=1;align=center;verticalAlign=middle;resizable=0;points=[];autosize=1;strokeColor=none;fillColor=none;" parent="1" vertex="1">
          <mxGeometry x="460" y="60" width="30" height="30" as="geometry" />
        </mxCell>
        <mxCell id="Km-T-MCeGYv-uBNx-6VA-119" style="edgeStyle=orthogonalEdgeStyle;rounded=0;orthogonalLoop=1;jettySize=auto;html=1;exitX=0;exitY=0.5;exitDx=0;exitDy=0;entryX=1;entryY=0.5;entryDx=0;entryDy=0;endArrow=none;endFill=0;" parent="1" source="Km-T-MCeGYv-uBNx-6VA-116" target="a5exqe3Fn3N1X1YNWytJ-12" edge="1">
          <mxGeometry relative="1" as="geometry" />
        </mxCell>
        <mxCell id="Km-T-MCeGYv-uBNx-6VA-116" value="cutscene" style="ellipse;whiteSpace=wrap;html=1;" parent="1" vertex="1">
          <mxGeometry x="860" y="815" width="100" height="60" as="geometry" />
        </mxCell>
        <mxCell id="Km-T-MCeGYv-uBNx-6VA-136" style="rounded=0;orthogonalLoop=1;jettySize=auto;html=1;exitX=1;exitY=0.5;exitDx=0;exitDy=0;entryX=0;entryY=0.5;entryDx=0;entryDy=0;endArrow=none;endFill=0;" parent="1" source="Km-T-MCeGYv-uBNx-6VA-137" target="a5exqe3Fn3N1X1YNWytJ-5" edge="1">
          <mxGeometry relative="1" as="geometry" />
        </mxCell>
        <mxCell id="Km-T-MCeGYv-uBNx-6VA-142" style="rounded=0;orthogonalLoop=1;jettySize=auto;html=1;exitX=1;exitY=0.5;exitDx=0;exitDy=0;entryX=0;entryY=0;entryDx=0;entryDy=0;endArrow=none;endFill=0;" parent="1" source="Km-T-MCeGYv-uBNx-6VA-143" target="a5exqe3Fn3N1X1YNWytJ-4" edge="1">
          <mxGeometry relative="1" as="geometry" />
        </mxCell>
        <mxCell id="Km-T-MCeGYv-uBNx-6VA-134" value="Dungeon" style="rounded=0;whiteSpace=wrap;html=1;" parent="1" vertex="1">
          <mxGeometry x="-190" width="120" height="60" as="geometry" />
        </mxCell>
        <mxCell id="Km-T-MCeGYv-uBNx-6VA-138" value="" style="rounded=0;orthogonalLoop=1;jettySize=auto;html=1;exitX=1;exitY=0.5;exitDx=0;exitDy=0;entryX=0;entryY=0.5;entryDx=0;entryDy=0;endArrow=none;endFill=0;" parent="1" source="Km-T-MCeGYv-uBNx-6VA-134" target="Km-T-MCeGYv-uBNx-6VA-137" edge="1">
          <mxGeometry relative="1" as="geometry">
            <mxPoint x="-80" y="30" as="sourcePoint" />
            <mxPoint x="400" y="30" as="targetPoint" />
          </mxGeometry>
        </mxCell>
        <mxCell id="Km-T-MCeGYv-uBNx-6VA-137" value="Awards" style="rhombus;whiteSpace=wrap;html=1;" parent="1" vertex="1">
          <mxGeometry x="120" y="5" width="50" height="50" as="geometry" />
        </mxCell>
        <mxCell id="Km-T-MCeGYv-uBNx-6VA-141" value="" style="rounded=0;orthogonalLoop=1;jettySize=auto;html=1;exitX=0.5;exitY=0;exitDx=0;exitDy=0;entryX=0.5;entryY=1;entryDx=0;entryDy=0;endArrow=none;endFill=0;edgeStyle=orthogonalEdgeStyle;" parent="1" source="a5exqe3Fn3N1X1YNWytJ-10" target="Km-T-MCeGYv-uBNx-6VA-140" edge="1">
          <mxGeometry relative="1" as="geometry">
            <mxPoint x="-130" y="370" as="sourcePoint" />
            <mxPoint x="-130" y="60" as="targetPoint" />
          </mxGeometry>
        </mxCell>
        <mxCell id="Km-T-MCeGYv-uBNx-6VA-140" value="Is at" style="rhombus;whiteSpace=wrap;html=1;" parent="1" vertex="1">
          <mxGeometry x="-155" y="195" width="50" height="50" as="geometry" />
        </mxCell>
        <mxCell id="Km-T-MCeGYv-uBNx-6VA-144" value="" style="rounded=0;orthogonalLoop=1;jettySize=auto;html=1;exitX=1;exitY=1;exitDx=0;exitDy=0;entryX=0;entryY=0.5;entryDx=0;entryDy=0;endArrow=none;endFill=0;" parent="1" source="Km-T-MCeGYv-uBNx-6VA-134" target="Km-T-MCeGYv-uBNx-6VA-143" edge="1">
          <mxGeometry relative="1" as="geometry">
            <mxPoint x="-70" y="60" as="sourcePoint" />
            <mxPoint x="399" y="370" as="targetPoint" />
          </mxGeometry>
        </mxCell>
        <mxCell id="Km-T-MCeGYv-uBNx-6VA-143" value="Contains" style="rhombus;whiteSpace=wrap;html=1;rotation=40;aspect=fixed;" parent="1" vertex="1">
          <mxGeometry x="130" y="181" width="56" height="56" as="geometry" />
        </mxCell>
        <mxCell id="Km-T-MCeGYv-uBNx-6VA-145" value="CraftingMaterials" style="rounded=0;whiteSpace=wrap;html=1;" parent="1" vertex="1">
          <mxGeometry x="1030" width="120" height="60" as="geometry" />
        </mxCell>
        <mxCell id="Km-T-MCeGYv-uBNx-6VA-148" value="" style="edgeStyle=orthogonalEdgeStyle;rounded=0;orthogonalLoop=1;jettySize=auto;html=1;exitX=1;exitY=0.5;exitDx=0;exitDy=0;entryX=0;entryY=0.5;entryDx=0;entryDy=0;endArrow=none;endFill=0;" parent="1" source="a5exqe3Fn3N1X1YNWytJ-5" target="Km-T-MCeGYv-uBNx-6VA-147" edge="1">
          <mxGeometry relative="1" as="geometry">
            <mxPoint x="520" y="30" as="sourcePoint" />
            <mxPoint x="880" y="30" as="targetPoint" />
          </mxGeometry>
        </mxCell>
        <mxCell id="Km-T-MCeGYv-uBNx-6VA-147" value="Craft" style="rhombus;whiteSpace=wrap;html=1;" parent="1" vertex="1">
          <mxGeometry x="785" y="5" width="50" height="50" as="geometry" />
        </mxCell>
        <mxCell id="Km-T-MCeGYv-uBNx-6VA-152" value="" style="edgeStyle=orthogonalEdgeStyle;rounded=0;orthogonalLoop=1;jettySize=auto;html=1;exitX=1;exitY=0.5;exitDx=0;exitDy=0;entryX=0;entryY=0.5;entryDx=0;entryDy=0;endArrow=none;endFill=0;" parent="1" source="a5exqe3Fn3N1X1YNWytJ-4" target="Km-T-MCeGYv-uBNx-6VA-151" edge="1">
          <mxGeometry relative="1" as="geometry">
            <mxPoint x="519" y="400" as="sourcePoint" />
            <mxPoint x="1090" y="60" as="targetPoint" />
          </mxGeometry>
        </mxCell>
        <mxCell id="Km-T-MCeGYv-uBNx-6VA-151" value="Drops" style="rhombus;whiteSpace=wrap;html=1;" parent="1" vertex="1">
          <mxGeometry x="990" y="375" width="50" height="50" as="geometry" />
        </mxCell>
        <mxCell id="Km-T-MCeGYv-uBNx-6VA-153" value="1" style="text;html=1;align=center;verticalAlign=middle;resizable=0;points=[];autosize=1;strokeColor=none;fillColor=none;" parent="1" vertex="1">
          <mxGeometry x="-70" width="30" height="30" as="geometry" />
        </mxCell>
        <mxCell id="Km-T-MCeGYv-uBNx-6VA-154" value="N" style="text;html=1;align=center;verticalAlign=middle;resizable=0;points=[];autosize=1;strokeColor=none;fillColor=none;" parent="1" vertex="1">
          <mxGeometry x="340" width="30" height="30" as="geometry" />
        </mxCell>
        <mxCell id="Km-T-MCeGYv-uBNx-6VA-155" value="1" style="text;html=1;align=center;verticalAlign=middle;resizable=0;points=[];autosize=1;strokeColor=none;fillColor=none;" parent="1" vertex="1">
          <mxGeometry x="-160" y="340" width="30" height="30" as="geometry" />
        </mxCell>
        <mxCell id="Km-T-MCeGYv-uBNx-6VA-156" value="N" style="text;html=1;align=center;verticalAlign=middle;resizable=0;points=[];autosize=1;strokeColor=none;fillColor=none;" parent="1" vertex="1">
          <mxGeometry x="-160" y="60" width="30" height="30" as="geometry" />
        </mxCell>
        <mxCell id="Km-T-MCeGYv-uBNx-6VA-157" value="M" style="text;html=1;align=center;verticalAlign=middle;resizable=0;points=[];autosize=1;strokeColor=none;fillColor=none;" parent="1" vertex="1">
          <mxGeometry x="555" width="30" height="30" as="geometry" />
        </mxCell>
        <mxCell id="Km-T-MCeGYv-uBNx-6VA-158" value="N" style="text;html=1;align=center;verticalAlign=middle;resizable=0;points=[];autosize=1;strokeColor=none;fillColor=none;" parent="1" vertex="1">
          <mxGeometry x="1000" width="30" height="30" as="geometry" />
        </mxCell>
        <mxCell id="Km-T-MCeGYv-uBNx-6VA-159" value="N" style="text;html=1;align=center;verticalAlign=middle;resizable=0;points=[];autosize=1;strokeColor=none;fillColor=none;" parent="1" vertex="1">
          <mxGeometry x="1090" y="60" width="30" height="30" as="geometry" />
        </mxCell>
        <mxCell id="Km-T-MCeGYv-uBNx-6VA-163" value="" style="edgeStyle=orthogonalEdgeStyle;rounded=0;orthogonalLoop=1;jettySize=auto;html=1;exitX=0.5;exitY=1;exitDx=0;exitDy=0;entryX=0.5;entryY=0;entryDx=0;entryDy=0;endArrow=none;endFill=0;" parent="1" source="a5exqe3Fn3N1X1YNWytJ-10" target="Km-T-MCeGYv-uBNx-6VA-161" edge="1">
          <mxGeometry relative="1" as="geometry">
            <mxPoint x="-130" y="430" as="sourcePoint" />
            <mxPoint x="1150" y="30" as="targetPoint" />
            <Array as="points">
              <mxPoint x="-130" y="780" />
              <mxPoint x="-130" y="780" />
            </Array>
          </mxGeometry>
        </mxCell>
        <mxCell id="Km-T-MCeGYv-uBNx-6VA-161" value="Spawn" style="rhombus;whiteSpace=wrap;html=1;" parent="1" vertex="1">
          <mxGeometry x="-155" y="790" width="50" height="50" as="geometry" />
        </mxCell>
        <mxCell id="Km-T-MCeGYv-uBNx-6VA-165" value="1" style="text;html=1;align=center;verticalAlign=middle;resizable=0;points=[];autosize=1;strokeColor=none;fillColor=none;" parent="1" vertex="1">
          <mxGeometry x="-160" y="445" width="30" height="30" as="geometry" />
        </mxCell>
        <mxCell id="Km-T-MCeGYv-uBNx-6VA-166" value="N" style="text;html=1;align=center;verticalAlign=middle;resizable=0;points=[];autosize=1;strokeColor=none;fillColor=none;" parent="1" vertex="1">
          <mxGeometry x="1150" width="30" height="30" as="geometry" />
        </mxCell>
        <mxCell id="Km-T-MCeGYv-uBNx-6VA-168" value="" style="edgeStyle=orthogonalEdgeStyle;rounded=0;orthogonalLoop=1;jettySize=auto;html=1;exitX=0.5;exitY=1;exitDx=0;exitDy=0;entryX=0.5;entryY=1;entryDx=0;entryDy=0;endArrow=none;endFill=0;" parent="1" source="Km-T-MCeGYv-uBNx-6VA-161" target="Km-T-MCeGYv-uBNx-6VA-167" edge="1">
          <mxGeometry relative="1" as="geometry">
            <mxPoint x="-130" y="840" as="sourcePoint" />
            <mxPoint x="1150" y="30" as="targetPoint" />
            <Array as="points">
              <mxPoint x="-130" y="1000" />
              <mxPoint x="1270" y="1000" />
              <mxPoint x="1270" y="475" />
            </Array>
          </mxGeometry>
        </mxCell>
        <mxCell id="Km-T-MCeGYv-uBNx-6VA-167" value="Spawn" style="rhombus;whiteSpace=wrap;html=1;" parent="1" vertex="1">
          <mxGeometry x="1245" y="425" width="50" height="50" as="geometry" />
        </mxCell>
        <mxCell id="Km-T-MCeGYv-uBNx-6VA-175" style="rounded=0;orthogonalLoop=1;jettySize=auto;html=1;exitX=0.5;exitY=1;exitDx=0;exitDy=0;entryX=0.5;entryY=0;entryDx=0;entryDy=0;endArrow=none;endFill=0;" parent="1" source="Km-T-MCeGYv-uBNx-6VA-169" target="Km-T-MCeGYv-uBNx-6VA-134" edge="1">
          <mxGeometry relative="1" as="geometry" />
        </mxCell>
        <mxCell id="Km-T-MCeGYv-uBNx-6VA-169" value="&lt;u&gt;id&lt;/u&gt;" style="ellipse;whiteSpace=wrap;html=1;" parent="1" vertex="1">
          <mxGeometry x="-300" y="-100" width="100" height="60" as="geometry" />
        </mxCell>
        <mxCell id="Km-T-MCeGYv-uBNx-6VA-176" style="rounded=0;orthogonalLoop=1;jettySize=auto;html=1;exitX=1;exitY=0.5;exitDx=0;exitDy=0;entryX=0;entryY=0.5;entryDx=0;entryDy=0;endArrow=none;endFill=0;" parent="1" source="Km-T-MCeGYv-uBNx-6VA-170" target="Km-T-MCeGYv-uBNx-6VA-134" edge="1">
          <mxGeometry relative="1" as="geometry" />
        </mxCell>
        <mxCell id="Km-T-MCeGYv-uBNx-6VA-170" value="name" style="ellipse;whiteSpace=wrap;html=1;" parent="1" vertex="1">
          <mxGeometry x="-300" width="100" height="60" as="geometry" />
        </mxCell>
        <mxCell id="Km-T-MCeGYv-uBNx-6VA-173" style="rounded=0;orthogonalLoop=1;jettySize=auto;html=1;exitX=0.5;exitY=1;exitDx=0;exitDy=0;entryX=0.5;entryY=0;entryDx=0;entryDy=0;endArrow=none;endFill=0;" parent="1" source="Km-T-MCeGYv-uBNx-6VA-171" target="Km-T-MCeGYv-uBNx-6VA-134" edge="1">
          <mxGeometry relative="1" as="geometry" />
        </mxCell>
        <mxCell id="Km-T-MCeGYv-uBNx-6VA-171" value="area" style="ellipse;whiteSpace=wrap;html=1;" parent="1" vertex="1">
          <mxGeometry x="-180" y="-100" width="100" height="60" as="geometry" />
        </mxCell>
        <mxCell id="Km-T-MCeGYv-uBNx-6VA-174" style="rounded=0;orthogonalLoop=1;jettySize=auto;html=1;exitX=0.5;exitY=1;exitDx=0;exitDy=0;entryX=0.5;entryY=0;entryDx=0;entryDy=0;endArrow=none;endFill=0;" parent="1" source="Km-T-MCeGYv-uBNx-6VA-172" target="Km-T-MCeGYv-uBNx-6VA-134" edge="1">
          <mxGeometry relative="1" as="geometry">
            <mxPoint x="-80" y="-20" as="targetPoint" />
          </mxGeometry>
        </mxCell>
        <mxCell id="Km-T-MCeGYv-uBNx-6VA-172" value="mainBoss" style="ellipse;whiteSpace=wrap;html=1;" parent="1" vertex="1">
          <mxGeometry x="-70" y="-100" width="100" height="60" as="geometry" />
        </mxCell>
        <mxCell id="Km-T-MCeGYv-uBNx-6VA-181" style="rounded=0;orthogonalLoop=1;jettySize=auto;html=1;exitX=0.5;exitY=1;exitDx=0;exitDy=0;entryX=0.5;entryY=0;entryDx=0;entryDy=0;endArrow=none;endFill=0;" parent="1" source="Km-T-MCeGYv-uBNx-6VA-177" target="Km-T-MCeGYv-uBNx-6VA-145" edge="1">
          <mxGeometry relative="1" as="geometry" />
        </mxCell>
        <mxCell id="Km-T-MCeGYv-uBNx-6VA-177" value="&lt;u&gt;id&lt;/u&gt;" style="ellipse;whiteSpace=wrap;html=1;" parent="1" vertex="1">
          <mxGeometry x="867.5" y="-130" width="100" height="60" as="geometry" />
        </mxCell>
        <mxCell id="Km-T-MCeGYv-uBNx-6VA-182" style="rounded=0;orthogonalLoop=1;jettySize=auto;html=1;exitX=0.5;exitY=1;exitDx=0;exitDy=0;entryX=0.5;entryY=0;entryDx=0;entryDy=0;endArrow=none;endFill=0;" parent="1" source="Km-T-MCeGYv-uBNx-6VA-178" target="Km-T-MCeGYv-uBNx-6VA-145" edge="1">
          <mxGeometry relative="1" as="geometry" />
        </mxCell>
        <mxCell id="Km-T-MCeGYv-uBNx-6VA-178" value="quantity" style="ellipse;whiteSpace=wrap;html=1;" parent="1" vertex="1">
          <mxGeometry x="982.5" y="-130" width="100" height="60" as="geometry" />
        </mxCell>
        <mxCell id="Km-T-MCeGYv-uBNx-6VA-183" style="rounded=0;orthogonalLoop=1;jettySize=auto;html=1;exitX=0.5;exitY=1;exitDx=0;exitDy=0;entryX=0.5;entryY=0;entryDx=0;entryDy=0;endArrow=none;endFill=0;" parent="1" source="Km-T-MCeGYv-uBNx-6VA-179" target="Km-T-MCeGYv-uBNx-6VA-145" edge="1">
          <mxGeometry relative="1" as="geometry" />
        </mxCell>
        <mxCell id="Km-T-MCeGYv-uBNx-6VA-179" value="source" style="ellipse;whiteSpace=wrap;html=1;" parent="1" vertex="1">
          <mxGeometry x="1097.5" y="-130" width="100" height="60" as="geometry" />
        </mxCell>
        <mxCell id="Km-T-MCeGYv-uBNx-6VA-184" style="rounded=0;orthogonalLoop=1;jettySize=auto;html=1;exitX=0.5;exitY=1;exitDx=0;exitDy=0;entryX=0.5;entryY=0;entryDx=0;entryDy=0;endArrow=none;endFill=0;" parent="1" source="Km-T-MCeGYv-uBNx-6VA-180" target="Km-T-MCeGYv-uBNx-6VA-145" edge="1">
          <mxGeometry relative="1" as="geometry" />
        </mxCell>
        <mxCell id="Km-T-MCeGYv-uBNx-6VA-180" value="craftingUse" style="ellipse;whiteSpace=wrap;html=1;" parent="1" vertex="1">
          <mxGeometry x="1212.5" y="-130" width="100" height="60" as="geometry" />
        </mxCell>
        <mxCell id="2" value="1" style="text;html=1;align=center;verticalAlign=middle;resizable=0;points=[];autosize=1;strokeColor=none;fillColor=none;" parent="1" vertex="1">
          <mxGeometry x="540" y="370" width="30" height="30" as="geometry" />
        </mxCell>
        <mxCell id="3" value="N" style="text;html=1;align=center;verticalAlign=middle;resizable=0;points=[];autosize=1;strokeColor=none;fillColor=none;" parent="1" vertex="1">
          <mxGeometry x="360" y="370" width="30" height="30" as="geometry" />
        </mxCell>
        <mxCell id="4" value="M" style="text;html=1;align=center;verticalAlign=middle;resizable=0;points=[];autosize=1;strokeColor=none;fillColor=none;" parent="1" vertex="1">
          <mxGeometry x="-70" y="370" width="30" height="30" as="geometry" />
        </mxCell>
        <mxCell id="Er95AWRNGRpnLCsBrpN--7" value="usedItems" style="ellipse;whiteSpace=wrap;html=1;" parent="1" vertex="1">
          <mxGeometry x="1312.5" y="-80" width="100" height="60" as="geometry" />
        </mxCell>
        <mxCell id="Er95AWRNGRpnLCsBrpN--8" style="rounded=0;orthogonalLoop=1;jettySize=auto;html=1;exitX=0;exitY=0.5;exitDx=0;exitDy=0;entryX=1;entryY=0;entryDx=0;entryDy=0;endArrow=none;endFill=0;" parent="1" source="Er95AWRNGRpnLCsBrpN--7" target="Km-T-MCeGYv-uBNx-6VA-145" edge="1">
          <mxGeometry relative="1" as="geometry">
            <mxPoint x="1343" y="-65" as="sourcePoint" />
            <mxPoint x="1170" y="5" as="targetPoint" />
          </mxGeometry>
        </mxCell>
        <mxCell id="Er95AWRNGRpnLCsBrpN--9" style="rounded=0;orthogonalLoop=1;jettySize=auto;html=1;exitX=0;exitY=0.5;exitDx=0;exitDy=0;entryX=0.75;entryY=0;entryDx=0;entryDy=0;endArrow=none;endFill=0;" parent="1" source="Er95AWRNGRpnLCsBrpN--10" target="Er95AWRNGRpnLCsBrpN--17" edge="1">
          <mxGeometry relative="1" as="geometry">
            <mxPoint x="-275" y="-360" as="targetPoint" />
          </mxGeometry>
        </mxCell>
        <mxCell id="Er95AWRNGRpnLCsBrpN--10" value="name" style="ellipse;whiteSpace=wrap;html=1;fontStyle=4" parent="1" vertex="1">
          <mxGeometry x="-190" y="-460" width="100" height="60" as="geometry" />
        </mxCell>
        <mxCell id="Er95AWRNGRpnLCsBrpN--11" style="rounded=0;orthogonalLoop=1;jettySize=auto;html=1;exitX=1;exitY=0.5;exitDx=0;exitDy=0;entryX=0;entryY=0.5;entryDx=0;entryDy=0;endArrow=none;endFill=0;" parent="1" source="Er95AWRNGRpnLCsBrpN--12" target="Er95AWRNGRpnLCsBrpN--18" edge="1">
          <mxGeometry relative="1" as="geometry">
            <mxPoint x="130" y="-340" as="targetPoint" />
          </mxGeometry>
        </mxCell>
        <mxCell id="Er95AWRNGRpnLCsBrpN--12" value="&lt;u&gt;name&lt;/u&gt;" style="ellipse;whiteSpace=wrap;html=1;" parent="1" vertex="1">
          <mxGeometry x="-20" y="-360" width="100" height="60" as="geometry" />
        </mxCell>
        <mxCell id="Er95AWRNGRpnLCsBrpN--13" style="rounded=0;orthogonalLoop=1;jettySize=auto;html=1;exitX=1;exitY=0.5;exitDx=0;exitDy=0;entryX=0;entryY=0.5;entryDx=0;entryDy=0;endArrow=none;endFill=0;" parent="1" source="Er95AWRNGRpnLCsBrpN--14" target="Er95AWRNGRpnLCsBrpN--19" edge="1">
          <mxGeometry relative="1" as="geometry">
            <mxPoint x="490" y="-385" as="targetPoint" />
          </mxGeometry>
        </mxCell>
        <mxCell id="Er95AWRNGRpnLCsBrpN--14" value="name" style="ellipse;whiteSpace=wrap;html=1;fontStyle=4" parent="1" vertex="1">
          <mxGeometry x="505" y="-350" width="100" height="60" as="geometry" />
        </mxCell>
        <mxCell id="Er95AWRNGRpnLCsBrpN--15" style="rounded=0;orthogonalLoop=1;jettySize=auto;html=1;exitX=1;exitY=1;exitDx=0;exitDy=0;entryX=0.5;entryY=0;entryDx=0;entryDy=0;endArrow=none;endFill=0;" parent="1" source="Er95AWRNGRpnLCsBrpN--16" target="Er95AWRNGRpnLCsBrpN--21" edge="1">
          <mxGeometry relative="1" as="geometry">
            <mxPoint x="1030" y="-460" as="targetPoint" />
          </mxGeometry>
        </mxCell>
        <mxCell id="Er95AWRNGRpnLCsBrpN--16" value="name" style="ellipse;whiteSpace=wrap;html=1;fontStyle=4" parent="1" vertex="1">
          <mxGeometry x="1055" y="-450" width="100" height="60" as="geometry" />
        </mxCell>
        <mxCell id="Er95AWRNGRpnLCsBrpN--17" value="" style="rounded=0;whiteSpace=wrap;html=1;strokeColor=default;perimeterSpacing=0;glass=0;shadow=0;gradientColor=none;fillColor=none;" parent="1" vertex="1">
          <mxGeometry x="-360" y="-350" width="140" height="80" as="geometry" />
        </mxCell>
        <mxCell id="Er95AWRNGRpnLCsBrpN--18" value="" style="rounded=0;whiteSpace=wrap;html=1;strokeColor=default;perimeterSpacing=0;glass=0;shadow=0;gradientColor=none;fillColor=none;" parent="1" vertex="1">
          <mxGeometry x="140" y="-350" width="140" height="80" as="geometry" />
        </mxCell>
        <mxCell id="Er95AWRNGRpnLCsBrpN--19" value="" style="rounded=0;whiteSpace=wrap;html=1;strokeColor=default;perimeterSpacing=0;glass=0;shadow=0;gradientColor=none;fillColor=none;" parent="1" vertex="1">
          <mxGeometry x="645" y="-350" width="140" height="80" as="geometry" />
        </mxCell>
        <mxCell id="Er95AWRNGRpnLCsBrpN--21" value="" style="rounded=0;whiteSpace=wrap;html=1;strokeColor=default;perimeterSpacing=0;glass=0;shadow=0;gradientColor=none;fillColor=none;" parent="1" vertex="1">
          <mxGeometry x="1125" y="-350" width="140" height="80" as="geometry" />
        </mxCell>
        <mxCell id="cW_SqPjZPZFJWvmXeVrt-5" style="edgeStyle=orthogonalEdgeStyle;rounded=0;orthogonalLoop=1;jettySize=auto;html=1;exitX=0.5;exitY=0;exitDx=0;exitDy=0;entryX=0;entryY=0.5;entryDx=0;entryDy=0;endArrow=none;endFill=0;" parent="1" source="cW_SqPjZPZFJWvmXeVrt-4" target="Km-T-MCeGYv-uBNx-6VA-94" edge="1">
          <mxGeometry relative="1" as="geometry" />
        </mxCell>
        <mxCell id="cW_SqPjZPZFJWvmXeVrt-4" value="Enemy" style="rounded=0;whiteSpace=wrap;html=1;" parent="1" vertex="1">
          <mxGeometry x="560" y="720" width="120" height="60" as="geometry" />
        </mxCell>
        <mxCell id="oBrkl6yZju3NshDSINMN-7" style="edgeStyle=orthogonalEdgeStyle;rounded=0;orthogonalLoop=1;jettySize=auto;html=1;exitX=0.5;exitY=0;exitDx=0;exitDy=0;entryX=0.5;entryY=1;entryDx=0;entryDy=0;endArrow=none;endFill=0;" edge="1" parent="1" source="oBrkl6yZju3NshDSINMN-4" target="oBrkl6yZju3NshDSINMN-5">
          <mxGeometry relative="1" as="geometry" />
        </mxCell>
        <mxCell id="oBrkl6yZju3NshDSINMN-8" style="edgeStyle=orthogonalEdgeStyle;rounded=0;orthogonalLoop=1;jettySize=auto;html=1;exitX=1;exitY=0.5;exitDx=0;exitDy=0;entryX=0;entryY=0.5;entryDx=0;entryDy=0;endArrow=none;endFill=0;" edge="1" parent="1" source="oBrkl6yZju3NshDSINMN-4" target="oBrkl6yZju3NshDSINMN-6">
          <mxGeometry relative="1" as="geometry" />
        </mxCell>
        <mxCell id="oBrkl6yZju3NshDSINMN-4" value="Users" style="rounded=0;whiteSpace=wrap;html=1;" vertex="1" parent="1">
          <mxGeometry x="960" y="610" width="120" height="60" as="geometry" />
        </mxCell>
        <mxCell id="oBrkl6yZju3NshDSINMN-5" value="Password" style="ellipse;whiteSpace=wrap;html=1;" vertex="1" parent="1">
          <mxGeometry x="970" y="505" width="100" height="55" as="geometry" />
        </mxCell>
        <mxCell id="oBrkl6yZju3NshDSINMN-6" value="username" style="ellipse;whiteSpace=wrap;html=1;" vertex="1" parent="1">
          <mxGeometry x="1125" y="600" width="100" height="55" as="geometry" />
        </mxCell>
      </root>
    </mxGraphModel>
  </diagram>
</mxfile>
